<svg viewBox="0 0 1024 1024" xmlns="http://www.w3.org/2000/svg"><path d="M711.566222 892.359111c-0.113778 5.461333-1.991111 7.338667-4.494222 7.338667H295.879111a4.323556 4.323556 0 0 1-4.437333-4.323556L238.08 303.388444a28.615111 28.615111 0 0 0-31.402667-25.6l-9.443555 0.796445a28.899556 28.899556 0 0 0-26.339556 30.776889l53.304889 589.027555C224.028444 935.424 256.568889 967.111111 295.879111 967.111111h411.192889a71.68 71.68 0 0 0 71.850667-71.793778l53.134222-586.126222a28.558222 28.558222 0 0 0-26.339556-30.606222l-9.386666-0.853333a28.842667 28.842667 0 0 0-31.402667 25.486222l-53.361778 589.141333z"></path><path d="M182.897778 276.707556c-0.455111 0-1.706667-1.194667-1.706667-1.649778v-35.328c0-1.080889 0.568889-1.649778 1.706667-1.649778h635.790222c0.455111 0 1.649778 1.251556 1.649778 1.649778v35.328c0 1.137778-0.568889 1.649778-1.649778 1.649778h-55.751111a28.842667 28.842667 0 0 0-28.615111 28.956444v9.500444a29.013333 29.013333 0 0 0 28.615111 28.956445h55.751111a68.835556 68.835556 0 0 0 69.12-69.063111v-35.328A69.802667 69.802667 0 0 0 818.688 170.666667H182.897778A68.835556 68.835556 0 0 0 113.777778 239.729778v35.328c0 37.660444 31.459556 69.063111 69.12 69.063111h55.808a28.785778 28.785778 0 0 0 28.558222-28.956445v-9.500444a29.013333 29.013333 0 0 0-28.558222-28.956444h-55.808z"></path><path d="M426.609778 170.666667h170.837333c15.758222 0 28.330667-12.572444 28.330667-28.444445s-12.572444-28.444444-28.330667-28.444444H426.609778C410.737778 113.777778 398.222222 126.350222 398.222222 142.222222s12.572444 28.444444 28.387556 28.444445z m0-113.777778h170.837333C644.494222 56.888889 682.666667 94.776889 682.666667 142.222222c0 47.104-37.831111 85.333333-85.219556 85.333334H426.609778A85.105778 85.105778 0 0 1 341.333333 142.222222C341.333333 95.118222 379.164444 56.888889 426.609778 56.888889zM466.375111 796.330667c0 15.644444 13.027556 28.330667 29.013333 28.330666h9.443556a28.728889 28.728889 0 0 0 28.956444-28.330666V377.230222a28.672 28.672 0 0 0-28.956444-28.330666h-9.443556a28.728889 28.728889 0 0 0-29.013333 28.330666v419.100445zM334.563556 796.387556a28.672 28.672 0 0 0 30.094222 27.079111l9.443555-0.341334a28.728889 28.728889 0 0 0 27.818667-29.468444l-16.725333-417.905778a28.728889 28.728889 0 0 0-30.151111-27.079111l-9.443556 0.398222a28.728889 28.728889 0 0 0-27.818667 29.468445l16.782223 417.848889zM599.552 793.884444a28.558222 28.558222 0 0 0 27.875556 29.240889l9.443555 0.341334a28.501333 28.501333 0 0 0 29.980445-27.079111l15.587555-416.711112a28.444444 28.444444 0 0 0-27.875555-29.240888l-9.443556-0.398223a28.672 28.672 0 0 0-30.037333 27.136l-15.530667 416.711111z"></path></svg>