<svg viewBox="0 0 1024 1024" xmlns="http://www.w3.org/2000/svg" width="40" height="40"><path d="M234.666667 362.666667l170.666667 0 0-42.666667-170.666667 0L234.666667 362.666667zM790.485333 490.496L20.821333 490.496l0 383.786667 769.664 0L790.485333 490.496zM277.333333 618.666667l-128 0 0 128 128 0 0 42.666667-128 0 0 0-42.666667 0 0-213.333333 170.666667 0L277.333333 618.666667zM490.666667 618.666667l-128 0 0 42.666667 128 0 0 128-170.666667 0 0-42.666667 128 0 0-42.666667-128 0 0-128 170.666667 0L490.666667 618.666667zM665.344 789.333333L618.666667 789.333333l1.749333-5.333333L533.333333 576l58.666667 0 49.578667 144.213333 47.744-144.213333 56.021333 0-81.877333 207.914667L665.344 789.333333zM405.333333 234.666667l-170.666667 0 0 42.666667 170.666667 0L405.333333 234.666667zM618.666667 234.666667l-170.666667 0 0 42.666667 170.666667 0L618.666667 234.666667zM960.298667 321.834667l-239.146667-258.901333L104.661333 62.933333l0 384.853333 88.576 0L193.237333 149.376l468.693333 0 0 212.48 212.48 0 0 553.557333L104.661333 915.413333l0 88.021333 856.192 0L960.853333 321.834667 960.298667 321.834667zM234.666667 448l170.666667 0 0-42.666667-170.666667 0L234.666667 448zM448 448l170.666667 0 0-42.666667-170.666667 0L448 448zM448 362.666667l170.666667 0 0-42.666667-170.666667 0L448 362.666667zM661.333333 405.333333l0 42.666667 128 0 0-42.666667L661.333333 405.333333z" fill="#1890ff"></path></svg>