<svg viewBox="0 0 1024 1024" xmlns="http://www.w3.org/2000/svg" width="40" height="40"><path d="M0 113.717356v796.565288c196.182432 38.097713 392.364863 75.587655 588.515307 113.717356V0C391.725103 38.097713 195.542671 75.587655 0 113.717356z m457.940272 598.495564h-75.587654c-6.237661 0-9.980257-1.215544-13.754842-7.485193l-63.080345-120.594777c-4.382357-8.092965-6.269649-16.857678-8.764713-22.455579-24.950644 46.830439-49.965263 94.940397-76.195427 143.050356-1.91928 3.134824-5.629889 6.877421-8.764713 6.877421-33.107585 0.63976-66.215169 0.63976-101.817819 0.63976 3.102836-5.022117 4.990129-8.124953 6.845433-11.259777 38.129701-59.337748 75.619643-119.315257 113.717356-178.684994 4.382357-6.877421 4.990129-11.86755 0.639761-19.352742-34.994877-58.729976-68.742222-118.099713-103.097339-176.829689-2.495064-3.742597-4.382357-7.485193-7.485193-13.754842h41.84031c19.384731 0 39.345246-0.607772 58.729976 0.63976 3.742597 0 10.012245 3.134824 11.259778 6.237661 19.992503 41.904286 39.985006 83.744596 59.337748 126.224666 2.495064 5.629889 4.382357 11.835562 6.877421 19.352742 1.247532-1.855304 2.495064-3.102836 3.134824-4.350368 23.735099-46.862427 46.830439-93.724853 70.597526-140.58728 1.247532-2.495064 4.350369-6.237661 6.845433-6.237661 31.25228-0.63976 63.112333-0.63976 96.859678-0.63976-3.134824 5.629889-4.382357 8.764713-6.877421 12.475322l-106.839935 176.221917c-4.382357 6.845433-4.382357 11.835562 0 19.352742a27803.81357 27803.81357 0 0 1 109.974759 179.932526c1.855304 3.742597 3.742597 6.877421 6.845433 12.475321l-21.240035-1.215544z m173.055105 192.439835s-0.607772-76.227415-0.607772-115.57266h116.820192v-79.970011h-116.180432v-78.082719h116.180432v-79.330251h-116.180432v-78.114707h116.820192v-79.330252h-116.820192V316.713233h118.067724v-80.609772h-118.067724V113.749344h392.972635V905.260527l-392.972635-0.63976zM787.864551 314.889916h149.927777c6.877421 0 8.124953-3.742597 8.124953-9.372485V259.902537v-24.37486h-157.444958c-0.63976 26.869924-0.63976 52.460327-0.63976 79.330251z m-0.63976 79.330251v56.874672c0 22.487567 0 22.487567 23.127327 22.487568h124.945146c3.742597 0 10.012245-3.134824 10.012245-5.022117 0.63976-24.342871 0.63976-48.717731 0.63976-73.700362-53.739848-0.63976-105.592403-0.63976-158.724478-0.639761z m157.444958 157.444959H787.864551v78.114707h156.805198v-78.114707zM787.864551 787.224791c1.855304 0.63976 3.134824 1.27952 3.742596 1.27952 48.749719 0 97.46745 0 146.185181 0.607772 6.877421 0 8.124953-3.134824 8.124953-8.732725 0-19.992503-0.63976-39.985006 0-59.977509 0.63976-9.372485-3.102836-11.259778-11.835562-11.259777-45.007122 0.63976-90.622017 0-135.629139 0-3.102836 0-6.205673 0.63976-9.980257 0.63976-0.63976 26.230164-0.63976 51.820567-0.63976 77.442959z" fill="#549f3b"></path></svg>