<svg viewBox="0 0 1024 1024" xmlns="http://www.w3.org/2000/svg"><path d="M409.6 102.4v307.2H102.4V102.4h307.2m0-51.2H102.4c-30.72 0-51.2 25.6-51.2 51.2v307.2c0 25.6 20.48 51.2 51.2 51.2h307.2c30.72 0 51.2-25.6 51.2-51.2V102.4c0-25.6-20.48-51.2-51.2-51.2zM921.6 102.4v307.2h-307.2V102.4h307.2m0-51.2h-307.2c-30.72 0-51.2 25.6-51.2 51.2v307.2c0 25.6 20.48 51.2 51.2 51.2h307.2c30.72 0 51.2-25.6 51.2-51.2V102.4c0-25.6-20.48-51.2-51.2-51.2zM409.6 604.16v307.2H102.4v-307.2h307.2m0-51.2H102.4c-30.72 0-51.2 25.6-51.2 51.2v307.2c0 25.6 20.48 51.2 51.2 51.2h307.2c30.72 0 51.2-25.6 51.2-51.2v-307.2c0-30.72-20.48-51.2-51.2-51.2zM921.6 604.16v307.2h-307.2v-307.2h307.2m0-51.2h-307.2c-30.72 0-51.2 25.6-51.2 51.2v307.2c0 25.6 20.48 51.2 51.2 51.2h307.2c30.72 0 51.2-25.6 51.2-51.2v-307.2c0-30.72-20.48-51.2-51.2-51.2z"></path></svg>